# Blender v3.0.0 OBJ File: ''
# www.blender.org
mtllib Backdrop.mtl
o IMG_0543
v -0.888889 -0.699303 0.198519
v 0.888889 -0.699303 0.198519
v -0.888889 0.500000 0.000000
v 0.888889 0.500000 0.000000
v -0.888889 -0.234742 -0.000000
v 0.888889 -0.234742 -0.000000
vt 0.000000 0.265258
vt 1.000000 0.265258
vt 1.000000 1.000000
vt 0.000000 1.000000
vt 0.000000 0.000000
vt 1.000000 0.000000
vn 0.0000 -0.0000 1.0000
vn 0.0000 0.3930 0.9196
usemtl IMG_0543
s off
f 5/1/1 6/2/1 4/3/1 3/4/1
f 1/5/2 2/6/2 6/2/2 5/1/2
